<?xml version="1.0" standalone="no"?>
<!DOCTYPE svg PUBLIC "-//W3C//DTD SVG 20010904//EN"
 "http://www.w3.org/TR/2001/REC-SVG-20010904/DTD/svg10.dtd">
<svg version="1.0" xmlns="http://www.w3.org/2000/svg"
 width="700.000000pt" height="700.000000pt" viewBox="0 0 700.000000 700.000000"
 preserveAspectRatio="xMidYMid meet">
<metadata>
Created by potrace 1.14, written by Peter Selinger 2001-2017
</metadata>
<g transform="translate(0.000000,700.000000) scale(0.100000,-0.100000)"
fill="#000000" stroke="none">
<path d="M0 3500 l0 -3500 3500 0 3500 0 0 3500 0 3500 -3500 0 -3500 0 0
-3500z m3466 1668 c39 -14 98 -43 132 -66 62 -42 123 -59 212 -58 31 1 35 4
38 29 11 90 209 68 351 -39 67 -50 96 -97 78 -126 -7 -10 -20 -21 -29 -24 -46
-14 -3 -46 110 -83 178 -59 309 -173 281 -248 -4 -12 -17 -27 -29 -33 -30 -16
-117 -14 -168 4 -23 8 -48 13 -55 10 -7 -2 -36 -48 -65 -100 l-53 -96 64 -62
c79 -76 97 -104 103 -164 8 -75 -38 -112 -141 -118 -109 -5 -216 36 -324 126
l-62 52 -112 0 c-62 0 -121 -1 -133 -1 -18 -1 -21 -7 -21 -50 1 -214 -371
-228 -574 -21 -60 62 -87 126 -74 177 11 45 52 91 100 112 25 11 45 23 45 27
0 14 -54 99 -73 117 -11 9 -32 17 -47 17 -69 0 -232 72 -287 126 -157 156 29
282 301 204 l69 -19 88 61 c49 33 92 64 94 68 3 5 -7 18 -22 30 -79 62 -88
135 -21 166 45 19 137 12 224 -18z m-1252 -1558 c68 -3 84 -7 124 -34 73 -49
98 -103 109 -244 l5 -73 -456 3 c-497 3 -476 1 -476 59 0 32 15 46 59 54 18 3
194 6 391 7 l358 2 -10 27 c-19 54 -53 74 -136 79 -149 10 -636 4 -674 -9
-111 -37 -148 -198 -65 -279 52 -51 88 -60 237 -61 538 -6 542 -7 590 -31 58
-28 116 -84 142 -135 17 -31 21 -59 22 -130 0 -106 -19 -154 -87 -219 -82 -78
-83 -78 -557 -79 -379 -1 -389 1 -453 72 -50 55 -58 79 -64 189 -6 92 -6 92
18 93 159 5 852 -3 872 -10 54 -21 54 -75 1 -100 -13 -6 -141 -10 -316 -11
-343 -1 -437 -5 -449 -17 -13 -13 27 -72 59 -84 28 -11 694 -15 741 -5 33 8
88 52 106 86 29 57 11 171 -33 207 -48 39 -76 43 -354 48 -427 8 -461 12 -530
68 -209 168 -105 515 158 526 32 1 59 3 61 4 3 3 512 0 607 -3z m847 -12 c1
-13 2 -66 3 -118 1 -53 6 -96 11 -97 6 -1 52 37 104 85 52 48 110 101 128 119
l35 31 246 0 c136 -1 251 -3 255 -5 5 -3 -9 -21 -30 -40 -70 -64 -454 -429
-625 -594 l-68 -66 93 -88 c50 -48 108 -103 129 -122 34 -33 40 -35 113 -37
42 -1 78 1 81 5 2 3 -29 37 -69 74 -39 37 -96 91 -126 119 l-54 50 43 38 c23
21 45 38 49 38 3 0 26 -19 51 -43 25 -23 95 -87 155 -142 60 -55 119 -109 131
-120 11 -11 47 -44 78 -73 32 -29 55 -56 51 -60 -3 -4 -120 -7 -258 -8 l-252
0 -49 45 c-28 25 -57 53 -66 61 -9 8 -69 65 -134 125 -65 61 -122 112 -127
113 -23 9 -1 39 99 136 59 57 123 118 142 136 19 18 95 89 169 158 73 70 139
131 145 137 43 37 38 41 -45 40 -93 -1 -56 27 -338 -245 -94 -91 -175 -166
-180 -168 -5 -2 -9 23 -9 55 0 32 0 126 -1 208 l-1 150 -60 0 c-57 0 -60 -1
-61 -25 0 -37 -1 -772 0 -790 1 -12 19 -15 105 -14 l103 1 62 -55 c33 -30 61
-57 61 -61 0 -4 -100 -7 -222 -6 l-223 0 -1 538 0 537 178 0 c178 0 178 0 179
-22z m1422 -303 c-1 -176 -2 -363 -2 -416 l-1 -96 -60 -2 -60 -2 1 308 c0 169
0 331 -1 358 l0 50 -57 0 -58 0 -3 -412 c-2 -327 0 -413 10 -414 7 0 59 -2
116 -3 56 -2 104 -5 107 -7 7 -8 13 -97 6 -106 -3 -5 -86 -9 -183 -9 -155 0
-178 2 -179 15 -7 97 2 1045 10 1050 5 4 87 6 183 6 l173 0 -2 -320z m932 316
c3 -5 -9 -34 -26 -63 -105 -178 -499 -869 -499 -875 0 -11 118 -9 129 3 7 7
250 423 392 671 31 55 73 118 83 125 6 4 15 -1 22 -10 8 -12 500 -858 530
-912 1 -3 -90 -6 -204 -5 l-206 0 -83 140 c-45 77 -92 158 -104 180 l-22 41
33 53 c41 65 30 75 154 -140 l89 -154 68 0 c37 0 66 2 64 5 -23 44 -303 523
-318 543 -16 24 -22 26 -32 15 -7 -7 -97 -159 -200 -338 -102 -179 -191 -329
-196 -335 -14 -14 -409 -14 -409 0 0 5 18 38 40 73 22 34 40 65 40 67 0 3 40
74 89 158 48 83 143 249 211 367 68 118 148 257 177 308 l54 92 59 0 c32 0 61
-4 65 -9z m-2067 -1240 c21 -1 31 -5 27 -12 -4 -6 -13 -8 -21 -5 -8 3 -14 0
-14 -7 0 -17 72 -137 81 -137 8 0 22 17 64 83 31 48 31 53 -2 65 -26 10 -26
11 -5 12 27 3 63 3 100 1 l27 -2 -35 -18 c-39 -21 -62 -50 -104 -128 l-28 -51
33 -59 c61 -109 120 -192 140 -198 37 -12 10 -20 -63 -19 -40 1 -84 2 -98 3
l-25 2 23 9 c12 5 22 13 22 18 0 9 -75 129 -90 146 -8 8 -110 -138 -110 -156
0 -5 11 -8 25 -8 38 0 30 -15 -10 -17 -19 -2 -38 -4 -42 -4 -5 -1 -20 -1 -35
0 -31 1 -39 21 -9 21 21 0 66 50 125 141 42 64 43 57 -26 174 -61 102 -79 125
-103 130 -11 2 -22 4 -25 6 -9 4 84 14 115 13 17 -1 45 -2 63 -3z m549 -4 c3
-4 -1 -7 -10 -7 -20 0 -19 7 -22 -107 l-2 -93 46 0 c76 0 109 43 97 125 -8 49
-30 74 -69 77 -15 1 -27 5 -27 9 0 11 113 -2 142 -17 39 -20 57 -51 53 -91 -4
-42 -36 -78 -90 -102 l-40 -17 44 -24 c50 -29 71 -70 71 -140 0 -32 5 -52 17
-61 9 -8 18 -13 20 -11 9 6 23 1 23 -9 0 -12 -74 -10 -106 4 -28 12 -45 50
-50 110 -5 63 -26 101 -63 116 -61 26 -66 18 -66 -104 l0 -110 30 -6 c38 -8
36 -9 -62 -16 -87 -5 -141 4 -93 16 l25 7 2 201 c2 207 -1 244 -21 242 -36 -4
-33 5 4 10 56 8 138 6 147 -2z"/>
<path d="M3278 5157 c-31 -25 -32 -61 -3 -96 53 -62 144 -100 249 -102 59 -2
96 17 96 49 0 46 -86 117 -173 143 -58 18 -150 21 -169 6z"/>
<path d="M3929 5096 c-58 -29 -11 -105 97 -156 90 -43 180 -47 205 -7 43 64
-218 205 -302 163z"/>
<path d="M3679 5028 c-1 -2 -2 -15 -3 -30 -3 -34 -19 -52 -56 -68 -27 -11 -28
-13 -14 -34 16 -26 55 -46 88 -46 12 0 51 -9 86 -21 l62 -20 50 48 c69 68 74
79 46 104 -39 33 -71 46 -128 53 -30 4 -72 9 -92 12 -21 3 -38 4 -39 2z"/>
<path d="M3252 4894 l-93 -67 48 -43 c33 -29 58 -43 78 -44 17 -1 72 -3 123
-6 l92 -6 0 29 c0 35 24 71 56 83 29 11 29 18 4 48 -18 21 -75 41 -195 69 -13
3 -51 -18 -113 -63z"/>
<path d="M3992 4878 c-59 -62 -82 -89 -82 -97 0 -5 14 -22 32 -39 33 -33 59
-40 180 -46 68 -3 68 -3 66 23 -2 57 2 72 27 81 48 18 2 54 -110 86 -33 9 -65
19 -71 21 -6 2 -25 -11 -42 -29z"/>
<path d="M2800 4848 c-16 -9 -36 -28 -45 -42 -15 -23 -15 -27 0 -60 64 -134
338 -207 425 -114 69 75 -50 202 -213 228 -86 13 -131 10 -167 -12z"/>
<path d="M3603 4811 c-90 -39 -13 -170 128 -218 82 -28 139 -33 177 -17 31 12
50 38 46 62 -1 6 -2 19 -3 27 -2 26 -73 87 -136 117 -67 31 -173 45 -212 29z"/>
<path d="M4262 4774 c-7 -3 -18 -17 -23 -31 -36 -95 251 -250 330 -179 29 26
26 55 -10 99 -56 67 -240 136 -297 111z"/>
<path d="M3270 4667 c0 -44 -27 -78 -82 -102 -24 -10 -45 -20 -47 -21 -1 -2
16 -32 39 -68 38 -58 47 -66 74 -66 17 0 65 -9 106 -21 l75 -21 102 109 c56
59 102 110 102 113 0 4 -46 41 -109 88 -11 8 -64 15 -139 19 l-121 5 0 -35z"/>
<path d="M4015 4660 c-2 -3 -2 -19 0 -35 4 -42 -10 -64 -57 -85 l-40 -17 44
-51 c50 -58 68 -69 123 -76 22 -3 53 -10 68 -15 16 -6 35 -11 42 -11 14 0 125
177 125 198 0 5 -10 16 -22 25 -13 8 -36 26 -53 41 -17 14 -43 27 -60 27 -112
5 -167 5 -170 -1z"/>
<path d="M3642 4488 c-127 -132 -156 -168 -134 -168 5 0 31 -22 60 -50 l51
-49 123 3 c68 2 126 5 129 5 4 1 6 19 4 40 -3 50 17 92 55 115 17 9 30 20 30
24 -1 4 -20 29 -44 56 -38 41 -54 51 -112 67 -38 10 -76 19 -85 19 -9 0 -43
-28 -77 -62z"/>
<path d="M3140 4342 c-36 -17 -70 -65 -70 -98 0 -168 340 -307 465 -190 29 28
35 40 35 75 0 66 -37 118 -126 179 -69 47 -238 66 -304 34z"/>
<path d="M3983 4341 c-42 -26 -50 -60 -28 -116 34 -90 176 -177 289 -179 73
-1 110 15 126 55 51 123 -263 318 -387 240z"/>
</g>
</svg>
